<?xml version="1.0" encoding="UTF-8"?>
<svg width="24px" height="24px" viewBox="0 0 24 24" version="1.1" xmlns="http://www.w3.org/2000/svg" xmlns:xlink="http://www.w3.org/1999/xlink">
    <title>Glyph/002.Object/047.Question/Black</title>
    <g id="Glyph/002.Object/047.Question/Black" stroke="none" stroke-width="1" fill="none" fill-rule="evenodd">
        <path d="M12,3 C16.9705627,3 21,7.02943725 21,12 C21,16.9705627 16.9705627,21 12,21 C7.02943725,21 3,16.9705627 3,12 C3,7.02943725 7.02943725,3 12,3 Z M12.0016013,15.6330221 C11.2772237,15.6330221 10.6899996,16.2202462 10.6899996,16.9446239 C10.6899996,17.6690015 11.2772237,18.2562256 12.0016013,18.2562256 C12.7259789,18.2562256 13.313203,17.6690015 13.313203,16.9446239 C13.313203,16.2202462 12.7259789,15.6330221 12.0016013,15.6330221 Z M12.0700213,5.89385902 C10.3407767,5.89385902 8.98434644,6.99157932 8.64037317,8.67800858 L8.64037317,8.67800858 L10.6000259,9.07770998 C10.7532975,8.32625111 11.2875955,7.89385902 12.0700213,7.89385902 C12.7526834,7.89385902 13.303786,8.29638114 13.4000042,9.03516117 C13.4729604,9.59533077 13.3458437,9.85588679 12.7896235,10.4214333 C12.7619566,10.4495642 12.6801715,10.5317315 12.6080867,10.6042224 L12.4957598,10.7174245 C11.4773024,11.7519194 11,12.6560765 11,14.1419672 L11,14.1419672 L13,14.1419672 C13,13.2643527 13.2371211,12.8151726 13.9209776,12.1205475 C13.9661596,12.0746541 14.1630722,11.8771939 14.2155455,11.8238407 C15.1602169,10.8633297 15.5507416,10.062856 15.3832547,8.77686381 C15.1463341,6.95774732 13.6897395,5.89385902 12.0700213,5.89385902 Z" id="Combined-Shape" fill="#B6C2CD"></path>
        <circle id="Oval" fill="#324558" cx="12.0016013" cy="16.9446239" r="1.31160173"></circle>
        <path d="M10.6000259,9.07770998 L8.64037317,8.67800858 C8.98434644,6.99157932 10.3407767,5.89385902 12.0700213,5.89385902 C13.6897395,5.89385902 15.1463341,6.95774732 15.3832547,8.77686381 C15.5507416,10.062856 15.1602169,10.8633297 14.2155455,11.8238407 C14.1630722,11.8771939 13.9661596,12.0746541 13.9209776,12.1205475 C13.2371211,12.8151726 13,13.2643527 13,14.1419672 L11,14.1419672 C11,12.6560765 11.4773024,11.7519194 12.4957598,10.7174245 C12.5470723,10.665304 12.7435119,10.4683181 12.7896235,10.4214333 C13.3458437,9.85588679 13.4729604,9.59533077 13.4000042,9.03516117 C13.303786,8.29638114 12.7526834,7.89385902 12.0700213,7.89385902 C11.2875955,7.89385902 10.7532975,8.32625111 10.6000259,9.07770998 Z" id="Shape" fill="#324558" fill-rule="nonzero"></path>
    </g>
</svg>