<?xml version="1.0" encoding="UTF-8"?>
<svg width="24px" height="24px" viewBox="0 0 24 24" version="1.1" xmlns="http://www.w3.org/2000/svg" xmlns:xlink="http://www.w3.org/1999/xlink">
    <title>Glyph/002.Object/097.Log/Black</title>
    <g id="Glyph/002.Object/097.Log/Black" stroke="none" stroke-width="1" fill="none" fill-rule="evenodd">
        <g id="log" transform="translate(5.000000, 3.000000)">
            <polygon id="Path" fill="#B6C2CD" points="9 0 15 6 9 6"></polygon>
            <path d="M0,0 L15,0 L15,18 L0,18 L0,0 Z M8.75,0 L8.75,6.42857143 L15,6.42857143 L15,0 L8.75,0 Z M3.75,10.2857143 L3.75,11.5714286 L11.25,11.5714286 L11.25,10.2857143 L3.75,10.2857143 Z M3.75,7.71428571 L3.75,9 L11.25,9 L11.25,7.71428571 L3.75,7.71428571 Z M3.75,12.8571429 L3.75,14.1428571 L8.75,14.1428571 L8.75,12.8571429 L3.75,12.8571429 Z" id="Shape" fill="#324558"></path>
        </g>
        <g id="log" transform="translate(5.000000, 3.000000)">
            <polygon id="Path" fill="#B6C2CD" points="9 0 15 6 9 6"></polygon>
            <path d="M0,0 L15,0 L15,18 L0,18 L0,0 Z M8.75,0 L8.75,6.42857143 L15,6.42857143 L15,0 L8.75,0 Z M3.75,10.2857143 L3.75,11.5714286 L11.25,11.5714286 L11.25,10.2857143 L3.75,10.2857143 Z M3.75,7.71428571 L3.75,9 L11.25,9 L11.25,7.71428571 L3.75,7.71428571 Z M3.75,12.8571429 L3.75,14.1428571 L8.75,14.1428571 L8.75,12.8571429 L3.75,12.8571429 Z" id="Shape" fill="#324558"></path>
        </g>
    </g>
</svg>