<?xml version="1.0" encoding="UTF-8"?>
<svg width="152px" height="32px" viewBox="0 0 152 32" version="1.1" xmlns="http://www.w3.org/2000/svg" xmlns:xlink="http://www.w3.org/1999/xlink">
    <!-- Generator: Sketch 64 (93537) - https://sketch.com -->
    <title>logo</title>
    <desc>Created with Sketch.</desc>
    <g id="页面-1" stroke="none" stroke-width="1" fill="none" fill-rule="evenodd">
        <g id="Defalut" transform="translate(-20.000000, -14.000000)" fill-rule="nonzero">
            <g id="编组-2" transform="translate(20.000000, 14.000000)">
                <g id="logo" transform="translate(0.000000, 0.000000)">
                    <g id="编组" transform="translate(36.893967, 7.396518)" fill="#FFFFFF">
                        <path d="M78.5068864,0.132894118 L77.1270174,0.132894118 C76.8254008,0.132894118 76.5742291,0.390547765 76.5742291,0.699229052 L76.5742291,7.28934095 L72.1323049,7.28934095 L72.1323049,0.699229052 C72.1323049,0.390547765 71.9063552,0.132894118 71.5802172,0.132894118 L70.1996476,0.132894118 C69.8983812,0.132894118 69.6472094,0.390547765 69.6472094,0.699229052 L69.6472094,16.5073763 C69.6472094,16.8167763 69.8983812,17.0740706 70.1996476,17.0740706 L71.5802172,17.0740706 C71.9063552,17.0740706 72.1323049,16.8167763 72.1323049,16.5073763 L72.1323049,9.83820751 L76.5742291,9.83820751 L76.5742291,16.5073763 C76.5742291,16.8167763 76.8254008,17.0740706 77.1270174,17.0740706 L78.5068864,17.0740706 C78.8333749,17.0740706 79.0589741,16.8167763 79.0589741,16.5073763 L79.0589741,0.699229052 C79.0589741,0.390547765 78.8333749,0.132894118 78.5068864,0.132894118" id="Fill-5"></path>
                        <path d="M44.8001506,15.091539 C44.8001506,14.7824983 44.5451347,14.5248447 44.239613,14.5248447 L37.9111601,14.525204 L37.9111601,9.87773594 L44.239613,9.87773594 C44.5451347,9.87773594 44.7997948,9.64631484 44.7997948,9.31140104 L44.7997948,7.89556367 C44.7997948,7.58616369 44.5447789,7.32886942 44.2392576,7.32886942 L37.9111601,7.32886942 L37.9111601,2.68176067 L44.2392576,2.68176067 C44.5447789,2.68176067 44.7997948,2.44998019 44.7997948,2.11542574 L44.7997948,0.699588401 C44.7997948,0.390188416 44.5447789,0.132894118 44.2392576,0.132894118 L37.3516895,0.132894118 C37.3513339,0.132894118 37.3509782,0.132894118 37.3506225,0.132894118 L35.949279,0.132894118 C35.6430463,0.132894118 35.3883859,0.390188416 35.3883859,0.699229052 L35.3883859,16.5073763 C35.3883859,16.8164169 35.6430463,17.0740706 35.949279,17.0740706 L36.5564093,17.0740706 L36.5574763,17.0740706 L44.239613,17.0740706 C44.5451347,17.0740706 44.8001506,16.8422901 44.8001506,16.5073763 L44.8001506,15.091539 Z" id="Fill-7"></path>
                        <path d="M90.7295624,15.091539 C90.7295624,14.7824983 90.4745464,14.5248447 90.1690248,14.5248447 L83.8405719,14.525204 L83.8405719,9.87773594 L90.1686694,9.87773594 C90.4741907,9.87773594 90.7292066,9.64631484 90.7292066,9.31140104 L90.7292066,7.89556367 C90.7292066,7.58616369 90.4741907,7.32886942 90.1686694,7.32886942 L83.8405719,7.32886942 L83.8405719,2.68176067 L90.1686694,2.68176067 C90.4741907,2.68176067 90.7292066,2.44998019 90.7292066,2.11542574 L90.7292066,0.699588401 C90.7292066,0.390188416 90.4741907,0.132894118 90.1686694,0.132894118 L83.2811012,0.132894118 C83.2807458,0.132894118 83.28039,0.132894118 83.2800343,0.132894118 L81.8786906,0.132894118 C81.5724582,0.132894118 81.3177976,0.390188416 81.3177976,0.699229052 L81.3177976,16.5073763 C81.3177976,16.8164169 81.5724582,17.0740706 81.8786906,17.0740706 L82.485821,17.0740706 L82.4868879,17.0740706 L90.1690248,17.0740706 C90.4745464,17.0740706 90.7295624,16.8422901 90.7295624,16.5073763 L90.7295624,15.091539 Z" id="Fill-9"></path>
                        <path d="M114.82368,15.091539 C114.82368,14.7824983 114.568664,14.5248447 114.263142,14.5248447 L107.93469,14.525204 L107.93469,9.87773594 L114.263142,9.87773594 C114.568664,9.87773594 114.823324,9.64631484 114.823324,9.31140104 L114.823324,7.89556367 C114.823324,7.58616369 114.568308,7.32886942 114.262787,7.32886942 L107.93469,7.32886942 L107.93469,2.68176067 L114.262787,2.68176067 C114.568308,2.68176067 114.823324,2.44998019 114.823324,2.11542574 L114.823324,0.699588401 C114.823324,0.390188416 114.568308,0.132894118 114.262787,0.132894118 L107.375219,0.132894118 C107.374863,0.132894118 107.374508,0.132894118 107.374152,0.132894118 L105.972808,0.132894118 C105.666931,0.132894118 105.411915,0.390188416 105.411915,0.699229052 L105.411915,16.5073763 C105.411915,16.8164169 105.666931,17.0740706 105.972808,17.0740706 L106.579939,17.0740706 L106.581006,17.0740706 L114.263142,17.0740706 C114.568664,17.0740706 114.82368,16.8422901 114.82368,16.5073763 L114.82368,15.091539 Z" id="Fill-11"></path>
                        <path d="M49.1170511,4.56468939 L49.1170511,5.53823725 C49.1170511,6.28133173 49.8198765,6.71655213 50.6230042,7.04975078 L53.9606276,8.48420533 C55.215648,9.04821911 56.0942682,10.0467297 56.0942682,11.5839296 L56.0942682,13.4025936 C56.0942682,14.9141071 52.981705,17.4505412 51.3251211,17.4505412 C50.1962763,17.4505412 48.4897182,16.6307495 47.1599145,15.887655 C46.8582984,15.7342606 46.6576937,15.3750139 46.8334886,14.9654798 L47.2602168,14.0943155 C47.4356574,13.7357923 47.8120572,13.6587333 48.1384828,13.8381758 C49.2173534,14.4018278 50.647814,15.0935496 51.3251211,15.0935496 C52.0782746,15.0935496 53.6597207,13.7871649 53.6597207,13.0440704 L53.6597207,11.9171282 C53.6597207,11.0459639 53.0072237,10.5593708 52.1037933,10.2008477 L48.9915848,8.86841483 C47.7868928,8.35613549 46.6825035,7.30589045 46.6825035,5.8714359 L46.6825035,4.20616621 C46.6825035,2.54089652 49.970153,0.132894118 51.5515987,0.132894118 C52.6056599,0.132894118 54.3122176,0.926999477 55.4417713,1.54202413 C55.7930067,1.72146661 55.893309,2.13136245 55.742324,2.438513 L55.3411144,3.30967733 C55.215648,3.61682788 54.8140838,3.71957317 54.4628484,3.56545523 C53.6093922,3.15592117 52.1789316,2.48988565 51.5515987,2.48988565 C50.8236092,2.48988565 49.1170511,3.71957317 49.1170511,4.56468939" id="Fill-13"></path>
                        <path d="M98.0527213,2.34720621 L95.5463386,2.34720621 L95.5463386,8.01163358 L98.0783258,8.01163358 C99.1378586,8.01163358 100.378067,6.13223529 100.378067,5.12785325 C100.378067,4.14970368 99.0859279,2.34720621 98.0527213,2.34720621 M97.9492201,10.2255863 L95.5463386,10.2255863 L95.5463386,16.508095 C95.5463386,16.8426494 95.3137318,17.0740706 94.9516589,17.0740706 L93.5827049,17.0740706 C93.2725628,17.0740706 92.9883859,16.8426494 92.9883859,16.508095 L92.9883859,1.31731032 C92.9883859,0.725461572 93.6862061,0.132894118 94.25456,0.132894118 L98.388829,0.132894118 C100.274566,0.132894118 102.776621,3.06374927 102.776621,4.99453455 C102.776621,6.28208407 101.644241,8.21718155 100.429998,8.96426933 C101.411634,9.47885794 102.754984,10.8436676 102.754984,12.105344 L102.754984,16.508095 C102.754984,16.8167763 102.497132,17.0740706 102.18663,17.0740706 L100.765745,17.0740706 C100.455603,17.0740706 100.197391,16.8167763 100.197391,16.508095 L100.197391,12.4912854 C100.197391,11.5900367 98.931578,10.2255863 97.9492201,10.2255863" id="Fill-15"></path>
                        <path d="M63.2801901,2.34720621 L60.8420781,2.34720621 L60.8420781,8.01163358 L63.3051008,8.01163358 C64.3362726,8.01163358 65.3986703,6.13223529 65.3986703,5.12785325 C65.3986703,4.14970368 64.2853982,2.34720621 63.2801901,2.34720621 M63.1798445,10.2255863 L60.8420781,10.2255863 L60.8420781,16.508095 C60.8420781,16.8426494 60.615424,17.0740706 60.2635132,17.0740706 L58.9313058,17.0740706 C58.629568,17.0740706 58.3530918,16.8426494 58.3530918,16.508095 L58.3530918,1.31731032 C58.3530918,0.725461572 59.0320019,0.132894118 59.584954,0.132894118 L63.6071898,0.132894118 C65.4418259,0.132894118 67.7648565,3.15502406 67.7648565,5.08580936 C67.7648565,6.37335887 66.8336794,8.10506447 65.757949,9.10657175 C65.2292058,9.59888068 64.3892521,10.2255863 63.1798445,10.2255863" id="Fill-17"></path>
                        <path d="M16.3705486,17.4505412 C14.7337351,17.4505412 11.6707388,15.2807909 11.6707388,13.4084359 L11.6707388,0.842207605 C11.6707388,0.53026964 11.9424422,0.272139154 12.2419059,0.272139154 L13.5539246,0.272139154 C13.8745554,0.272139154 14.1223156,0.53026964 14.1223156,0.842207605 L14.1223156,13.0717756 C14.1223156,13.98214 15.6015898,15.0855569 16.3705486,15.0855569 C17.1395075,15.0855569 18.6288447,13.8425314 18.6288447,12.932167 L18.6288447,0.702962571 C18.6288447,0.390661037 18.8516207,0.132894118 19.1510843,0.132894118 L20.5113364,0.132894118 C20.8108001,0.132894118 21.0825035,0.390661037 21.0825035,0.702962571 L21.0825035,13.2691909 C21.0825035,15.0855569 18.0056272,17.4505412 16.3705486,17.4505412" id="Fill-19"></path>
                        <path d="M28.2946694,14.8600709 L25.8872733,14.8600709 L25.8872733,9.19552335 L28.3201541,9.19552335 C29.3747134,9.19552335 30.6094597,10.9761383 30.6094597,11.9801823 C30.6094597,12.9587119 29.3233853,14.8600709 28.2946694,14.8600709 L28.2946694,14.8600709 Z M25.8872733,2.34689382 L28.2946694,2.34689382 C29.3233853,2.34689382 30.6094597,3.82169577 30.6094597,4.80022543 C30.6094597,5.80426944 29.3747134,7.44401634 28.3201541,7.44401634 L25.8872733,7.44401634 L25.8872733,2.34689382 Z M30.7770837,8.3201292 C31.9490158,7.54751123 33.1295624,6.0464762 33.1295624,4.80022543 C33.1295624,2.86939919 30.5064445,0.132894118 28.6291995,0.132894118 L24.6011989,0.132894118 C24.0358718,0.132894118 23.3413271,0.725114782 23.3413271,1.31697609 L23.3413271,7.524153 L23.3413271,15.8896293 L23.3413271,16.508083 C23.3413271,16.8430039 23.6241701,17.0740706 23.9328567,17.0740706 L24.6011989,17.0740706 L25.2957437,17.0740706 L28.7160625,17.0740706 C30.5933075,17.0740706 33.1295624,13.9113679 33.1295624,11.9801823 C33.1295624,10.7346502 31.9490158,9.10137175 30.7770837,8.3201292 L30.7770837,8.3201292 Z" id="Fill-21"></path>
                        <path d="M3.73060943,8.69727258 L9.27106714,2.20562248 C9.47067848,1.9716859 9.46393005,1.62563226 9.21352794,1.40678837 L8.15402507,0.481463209 C7.92280267,0.279149396 7.56371539,0.305741264 7.36410406,0.539677839 L2.51944456,6.21632312 L2.51944456,0.699588401 C2.51944456,0.390547765 2.29035325,0.132894118 1.95968038,0.132894118 L0.559914763,0.132894118 C0.254459693,0.132894118 0.000150588235,0.390547765 0.000150588235,0.699588401 L0.000150588235,16.508095 C0.000150588235,16.8167763 0.254459693,17.0740706 0.559914763,17.0740706 L1.95968038,17.0740706 C2.29035325,17.0740706 2.51944456,16.8167763 2.51944456,16.508095 L2.51944456,11.1782221 L7.36410406,16.8552267 C7.56371539,17.0888039 7.92280267,17.1153958 8.15402507,16.9134413 L9.21352794,15.9881162 C9.46393005,15.7689129 9.47067848,15.4228593 9.27106714,15.1892821 L3.73060943,8.69727258 Z" id="Fill-23"></path>
                    </g>
                    <polygon id="Fill-1" fill="#00A971" points="24.0939671 25.8433948 16.9410259 21.7024 16.9410259 29.9847529"></polygon>
                    <polygon id="Fill-2" fill="#00A971" points="24.0939671 6.26710588 16.9410259 2.12592941 16.9410259 10.4082824"></polygon>
                    <polygon id="Fill-3" fill="#00A971" points="7.03164186 16.0555183 13.5527906 12.2562325 13.5527906 0.243576471 -0.000150588235 8.1392771 -0.000150588235 23.9717594 13.5527906 31.8671059 13.5527906 19.854804"></polygon>
                    <polygon id="Fill-4" fill="#00A971" points="13.5527906 16.0553412 27.4822024 23.9612235 27.4822024 8.14945882"></polygon>
                </g>
            </g>
        </g>
    </g>
</svg>