<?xml version="1.0" encoding="UTF-8"?>
<svg width="24px" height="24px" viewBox="0 0 24 24" version="1.1" xmlns="http://www.w3.org/2000/svg" xmlns:xlink="http://www.w3.org/1999/xlink">
    <title>Glyph/002.Object/132.table chart/White</title>
    <g id="Glyph/002.Object/132.table-chart/White" stroke="none" stroke-width="1" fill="none" fill-rule="evenodd">
        <g id="编组-4" transform="translate(2.500000, 3.000000)" fill="#FFFFFF">
            <path d="M2,0 L17,0 C18.1045695,-2.02906125e-16 19,0.8954305 19,2 L19,5 L19,5 L0,5 L0,2 C-1.3527075e-16,0.8954305 0.8954305,2.02906125e-16 2,0 Z" id="Rectangle" opacity="0.900000036"></path>
            <path d="M-1,10 L8,10 L8,10 L8,15 L-3,15 L-3,12 C-3,10.8954305 -2.1045695,10 -1,10 Z" id="Rectangle" opacity="0.400000006" transform="translate(2.500000, 12.500000) rotate(-90.000000) translate(-2.500000, -12.500000) "></path>
            <path d="M13,10 L22,10 L22,10 L22,15 L11,15 L11,12 C11,10.8954305 11.8954305,10 13,10 Z" id="Rectangle" opacity="0.400000006" transform="translate(16.500000, 12.500000) scale(-1, 1) rotate(-90.000000) translate(-16.500000, -12.500000) "></path>
            <rect id="Rectangle" opacity="0.400000006" transform="translate(9.500000, 12.500000) scale(-1, 1) rotate(-90.000000) translate(-9.500000, -12.500000) " x="4" y="10" width="11" height="5"></rect>
        </g>
    </g>
</svg>