<?xml version="1.0" encoding="UTF-8"?>
<svg width="24px" height="24px" viewBox="0 0 24 24" version="1.1" xmlns="http://www.w3.org/2000/svg" xmlns:xlink="http://www.w3.org/1999/xlink">
    <title>Glyph/002.Object/086.Terminal/Black</title>
    <g id="Glyph/002.Object/086.Terminal/Black" stroke="none" stroke-width="1" fill="none" fill-rule="evenodd">
        <g id="Group-2" transform="translate(12.000000, 15.500000)"></g>
        <g id="Group-5" transform="translate(3.000000, 5.000000)">
            <g id="Group-4" transform="translate(0.000000, 3.000000)">
                <path d="M18,0 L18,10 C18,10.5522847 17.5522847,11 17,11 L1,11 C0.44771525,11 6.76353751e-17,10.5522847 0,10 L0,0 L18,0 Z M5.61094533,2.5 L5,3.11094533 L7.38905467,5.5 L5,7.88905467 L5.61094533,8.5 L8.61094533,5.5 L5.61094533,2.5 Z M13,7.5 L9,7.5 L9,8.5 L13,8.5 L13,7.5 Z" id="Combined-Shape" fill="#B6C2CD"></path>
                <g id="Group-2" transform="translate(5.000000, 2.500000)" fill="#324558">
                    <polygon id="Shape" points="0 0.610945326 0.610945326 0 3.61094533 3 0.610945326 6 0 5.38905467 2.38905467 3"></polygon>
                    <rect id="Rectangle" x="4" y="5" width="4" height="1"></rect>
                </g>
            </g>
            <g id="Group-3">
                <path d="M17,0 C17.5522847,-1.01453063e-16 18,0.44771525 18,1 L18,3 L0,3 L0,1 C-6.76353751e-17,0.44771525 0.44771525,1.01453063e-16 1,0 L17,0 Z M12.5,1 C12.2238576,1 12,1.22385763 12,1.5 C12,1.77614237 12.2238576,2 12.5,2 C12.7761424,2 13,1.77614237 13,1.5 C13,1.22385763 12.7761424,1 12.5,1 Z M14.5,1 C14.2238576,1 14,1.22385763 14,1.5 C14,1.77614237 14.2238576,2 14.5,2 C14.7761424,2 15,1.77614237 15,1.5 C15,1.22385763 14.7761424,1 14.5,1 Z M16.5,1 C16.2238576,1 16,1.22385763 16,1.5 C16,1.77614237 16.2238576,2 16.5,2 C16.7761424,2 17,1.77614237 17,1.5 C17,1.22385763 16.7761424,1 16.5,1 Z" id="Combined-Shape" fill="#324558"></path>
                <circle id="Oval-2" fill="#B6C2CD" cx="12.5" cy="1.5" r="1"></circle>
                <circle id="Oval-2-Copy" fill="#B6C2CD" cx="14.5" cy="1.5" r="1"></circle>
                <circle id="Oval-2-Copy-2" fill="#B6C2CD" cx="16.5" cy="1.5" r="1"></circle>
            </g>
        </g>
    </g>
</svg>