<?xml version="1.0" encoding="UTF-8"?>
<svg width="24px" height="24px" viewBox="0 0 24 24" version="1.1" xmlns="http://www.w3.org/2000/svg" xmlns:xlink="http://www.w3.org/1999/xlink">
    <title>Glyph/002.Object/057.CreditCard/Black</title>
    <g id="Glyph/002.Object/057.CreditCard/Black" stroke="none" stroke-width="1" fill="none" fill-rule="evenodd">
        <path d="M22,8 L2,8 L2,7 C2,5.8954305 2.8954305,5 4,5 L20,5 C21.1045695,5 22,5.8954305 22,7 L22,8 Z M22,11 L22,17 C22,18.1045695 21.1045695,19 20,19 L4,19 C2.8954305,19 2,18.1045695 2,17 L2,11 L22,11 Z M18,17 C19.1045695,17 20,16.1045695 20,15 C20,13.8954305 19.1045695,13 18,13 C16.8954305,13 16,13.8954305 16,15 C16,16.1045695 16.8954305,17 18,17 Z" id="Combined-Shape" fill="#B6C2CD"></path>
        <polygon id="Rectangle-23" fill="#324558" points="2 8 22 8 22 11 2 11"></polygon>
    </g>
</svg>