<?xml version="1.0" encoding="UTF-8"?>
<svg width="24px" height="24px" viewBox="0 0 24 24" version="1.1" xmlns="http://www.w3.org/2000/svg" xmlns:xlink="http://www.w3.org/1999/xlink">
    <title>Glyph/002.Object/003.Cogwheel/Black</title>
    <g id="Glyph/002.Object/003.Cogwheel/Black" stroke="none" stroke-width="1" fill="none" fill-rule="evenodd">
        <path d="M13,3 L13.0004976,4.98408521 C13.5722716,5.06489006 14.1221081,5.21393942 14.6415014,5.42272754 L15.6339746,3.70577137 L17.3660254,4.70577137 L16.374226,6.42489258 C16.8208244,6.7757819 17.2242181,7.17917558 17.5751074,7.62577404 L19.2942286,6.6339746 L20.2942286,8.3660254 L18.5772725,9.35849858 C18.7861826,9.87819552 18.9352842,10.4283712 19.0160564,11.0005051 L21,11 L21,13 L19.0159148,13.0004976 C18.9351099,13.5722716 18.7860606,14.1221081 18.5772725,14.6415014 L20.2942286,15.6339746 L19.2942286,17.3660254 L17.5751074,16.374226 C17.2242181,16.8208244 16.8208244,17.2242181 16.374226,17.5751074 L17.3660254,19.2942286 L15.6339746,20.2942286 L14.6415014,18.5772725 C14.1221081,18.7860606 13.5722716,18.9351099 13.0004976,19.0159148 L13,21 L11,21 L11.0005051,19.0160564 C10.4283712,18.9352842 9.87819552,18.7861826 9.35849858,18.5772725 L8.3660254,20.2942286 L6.6339746,19.2942286 L7.62577404,17.5751074 C7.17917558,17.2242181 6.7757819,16.8208244 6.42489258,16.374226 L4.70577137,17.3660254 L3.70577137,15.6339746 L5.42272754,14.6415014 C5.21393942,14.1221081 5.06489006,13.5722716 4.98408521,13.0004976 L3,13 L3,11 L4.98394359,11.0005051 C5.06471583,10.4283712 5.21381738,9.87819552 5.42272754,9.35849858 L3.70577137,8.3660254 L4.70577137,6.6339746 L6.42489258,7.62577404 C6.7757819,7.17917558 7.17917558,6.7757819 7.62577404,6.42489258 L6.6339746,4.70577137 L8.3660254,3.70577137 L9.35849858,5.42272754 C9.87819552,5.21381738 10.4283712,5.06471583 11.0005051,4.98394359 L11,3 L13,3 Z M12,7 C9.23857625,7 7,9.23857625 7,12 C7,14.7614237 9.23857625,17 12,17 C14.7614237,17 17,14.7614237 17,12 C17,9.23857625 14.7614237,7 12,7 Z" id="Combined-Shape" fill="#324558"></path>
        <circle id="Oval-8-Copy-2" fill="#B6C2CD" cx="12" cy="12" r="3"></circle>
    </g>
</svg>